<svg xmlns="http://www.w3.org/2000/svg" xmlns:xlink="http://www.w3.org/1999/xlink" viewBox="0 0 2000 2000"> <defs> <style> .bmk-1 { fill: url(#bmlg-2); } .bmk-2 { fill: url(#bmlg); } .bmk-3 { fill: #fff; } .bmk-4 { fill: #171818; } </style> <linearGradient id="bmlg" x1="833.75" y1="871.49" x2="1255.54" y2="1058.65" gradientUnits="userSpaceOnUse"> <stop offset=".15" stop-color="#d4d9d7"/> <stop offset=".36" stop-color="#fffffe"/> </linearGradient> <linearGradient id="bmlg-2" x1="1197.02" y1="1046.11" x2="1000.82" y2="1232.76" gradientUnits="userSpaceOnUse"> <stop offset=".26" stop-color="#afb3b1"/> <stop offset=".49" stop-color="#fffffe"/> </linearGradient> </defs> <g> <path class="bmk-3" d="M728.41,1210.38c-16.21,15.69-27.33,30.96-27.33,30.96-31.37,6.28-64.19,5.51-95.89-2.91,37.15,3.07,74.46-3.74,108.02-19.52,4.4-2.07,9.7-5.05,15.2-8.53Z"/> <path class="bmk-3" d="M758,1187.05l-.13,5.75c-.12,5.32-1.63,10.52-4.44,15.04,0,.03-.02.05-.04.07-5.06,8.11-10.57,15.76-16.48,22.94-21.04,25.54-47.2,45.09-76.02,58.1,15.19-13.36,28.7-29.13,39.94-47.18l.27-.42s11.11-15.27,27.33-30.96c10.84-6.87,22.48-15.69,29.58-23.34Z"/> <path class="bmk-2" d="M1097.5,847.75c-19.08-7.91-39.68-10.97-39.68-10.97-11.98-1.63-22.36-1.72-30.1-1.72h-154.01c-8.46,0-15.33,6.86-15.33,15.33v151.89c-21.03-9.74-56.95,14.2-73.24,21.35v-178.46c0-46.03,37.31-83.34,83.34-83.34h199.64c2.32,0,5.69.04,9.75.26,11.54.63,44.6,3.58,78.62,22.55,0,0,60.83,33.92,82.31,100.86,6.19,19.28,7.8,49.22,7.8,49.37,0,.23,0,.5,0,.5-.14,8.99-.79,19.74-2.49,31.62,0,0-.45,3.14-.96,6.18-6.37,37.67-34.09,79.54-34.09,79.54-19.15,28.93-65.12,87.12-133.37,156.78-.09.09-.14.13-.14.13-.15-.13,11.48-15,12-15.68,51.09-65.57,76.89-119.85,89.49-161.31,19.17-63.05-2.82-131.67-55.75-170.93-8.45-6.27-16.52-10.94-23.78-13.95Z"/> <path class="bmk-3" d="M1218.57,1055.04c-.38-.5-.77-.99-1.16-1.49-1.03-1.31-2.09-2.59-3.16-3.87-.68-.8-1.36-1.59-2.05-2.37-16.39-18.61-38.78-31.08-63.1-38.44-25.23-7.63-52.53-9.74-77.35-7.43-21.68,2.02-42.48,8.1-63.18,14.42-10.34,3.16-26.69,12.58-36.32,18.24-11.03,6.48-20.59,13.86-30.88,21.25-.36.26-.73.52-1.09.77v32.4c4.99.38,7.95.87,7.95.87-2.71.58-5.36,1.2-7.95,1.87v15.39c30.74-3.08,181.03,2.5,197.96,88.43,1.66,8.39,4.51,30.08-9.38,60.05-7.43,16.03-21.77,27.87-38.94,31.99-.11.03-.21.05-.32.08-9.17,2.18-18.69,3.32-28.41,3.32h-174.88c-15.42,0-27.92-12.5-27.92-27.92v-42.85c-3.59,11.91-7.32,13.63-12.86,17.39-4.85,3.29-10.9,4.72-16.49,6.46-15.15,4.69-33.95,6.4-43.87-.34v61.19c0,32.75,26.55,59.31,59.31,59.31h216.72c20.61,0,40.93-3.21,60.45-9.54.05-.02.1-.03.14-.04,1.18-.37,2.37-.77,3.57-1.2.15-.05.31-.1.48-.17,25.71-9.22,58.7-30.83,77.13-49.65.2-.2.41-.42.61-.62,3.23-3.34,6.32-6.87,9.27-10.56,20.81-26.01,34.35-59.96,39.21-95.62,6.73-49.35-3.18-101.98-33.47-141.35ZM1100.33,1342c.11.32.29.66.57,1.02-.29-.35-.49-.69-.57-1.02Z"/> <path class="bmk-1" d="M1089.91,1287.15c8.68-3.5,26.81-12.35,38.94-31.99,17.97-29.1,12.38-65.08-2.33-88.08-7.81-12.21-17.58-19.82-26.08-25.34-52.66-34.16-130.24-35.54-160.17-35.07,29.82-11.59,75.59-39,126.42-49.3,19.75-4,40.59-3.68,57.31.12,52.53,11.94,94.09,73.91,86.07,127.98-.1.69-.21,1.37-.33,2.06-8.9,52.64-57.98,95.31-119.83,99.61Z"/> <path class="bmk-3" d="M895.19,817.72c25.59-25.73,67.1-51.56,132.19-55.9h-158.85c-46.09,0-83.45,37.36-83.45,83.45v185.55c4.28-3.6,11.37-7.66,20.58-11.76,11.19-4.98,21.76-10.11,33.63-13.11,7.63-1.93,14.25-4.69,19.09-3.67v-94.49c0-33.69,13.06-66.19,36.81-90.07Z"/> <path class="bmk-3" d="M848.47,1019.58c-18.69,4.78-36.36,10.18-52.98,15.96-8.92,3.1-16.15,9.79-19.93,18.44-11.27,25.75-34.99,36.83-35.41,37.03,10.56-10.78,8.98-25.82,8.98-25.82-2.24,11.46-22.68,26.72-22.68,26.72-33.02,22.91-59.07,78.39-59.07,78.39,17.16,18.95,59.09,31.25,59.73,31.44-20.66-9.66-27.84-33.24-27.84-33.24,25.6,2.03,51.89-11.68,51.89-11.68,14.82,25.38,40.2,27.4,40.2,27.4-19.09-16.18-11.91-42.9-11.91-42.9l-11.68,7.64c31.35-47.71,86.78-37.03,86.78-37.03,26.83-24.96,68.45-24.74,85.73-23.39,4.99.38,7.95.87,7.95.87-2.71.58-5.36,1.2-7.95,1.87-102.78,26.35-106.04,114.58-106.04,114.58-16.09-3.22-21.39-23.47-21.39-23.47-7.39,15.33,5.29,27.64,5.29,27.64-36.66,18.58-52.44-13.82-52.44-13.82-3.78,12.69,7.96,28.39,7.96,28.39,26.88,24.24,71.53,1.7,71.53,1.7,3.05-17.12,14.7-69.59,60.94-102.21,11.79-8.32,23.6-13.77,34.16-17.42,11.59-8.08,23.93-19.59,23.48-32.97-.46-13.67-14.09-23.52-12.78-25,.97-1.09,9.09,3.48,40.38,28.25,20.39-12.63,40.77-25.26,61.16-37.89l19.22-37.61c-60.22-5.05-137.53-3.8-223.27,18.13ZM800.49,1076.12c2.59,1.75,1.81,4.72,1.81,4.72,0,0-5.68-5.75-11.25.32-5.56,6.08,1.29,10.47,1.29,10.47-1.81,4.53-10.21,1.55-10.21,1.55l-6.33,8.47c5.63-.84,14.54-3.75,18.1-5.95,3.55-2.2,2.65-8.92,1.29-10.86-1.36-1.94-.2-2.32-.2-2.32,4.72-1.62,7.57,4.58,7.57,4.58l2.14-3.83c4.47,14.63-13.21,27.43-29.87,28.45-16.66,1.01-23.98,15.24-23.98,15.24-2.02-13.6,8.31-24,14.61-27.81,6.3-3.81,17.56-22.85,17.56-22.85,26.99-19.38,48.56-2.39,48.56-2.39-21.97-3.36-31.08,2.2-31.08,2.2Z"/> </g> </svg>